<svg width="595" height="773" viewBox="0 0 595 773" fill="none" xmlns="http://www.w3.org/2000/svg">
<g id="undraw_loading_re_5axr (1) 1" clip-path="url(#clip0_1_248)">
<path id="Vector" d="M420.802 213.43C420.802 217.836 420.659 222.204 420.374 226.536C418.773 251.52 412.463 275.976 401.775 298.615C401.692 298.808 401.595 298.988 401.513 299.167C401.015 300.217 400.504 301.266 399.979 302.302C396.801 308.705 393.274 314.929 389.417 320.947C371.794 348.571 347.639 371.429 319.087 387.5C290.535 403.571 258.465 412.361 225.71 413.092L227.685 526.671L253.437 513.109L258.035 521.851L227.879 537.734L231.565 748.679L231.606 751.496L211.696 753.167L211.737 753.098L218.005 413.106C191.641 412.727 165.615 407.114 141.438 396.592C117.26 386.071 95.4132 370.85 77.1654 351.814C75.9093 350.515 74.6661 349.176 73.4511 347.85C73.3959 347.795 73.3547 347.739 73.3129 347.698C58.1092 331.114 45.8132 312.083 36.9432 291.405C37.1367 291.626 37.3437 291.834 37.5372 292.055C17.4907 245.167 16.1311 192.386 33.737 144.528C51.3429 96.6706 86.5812 57.3593 132.231 34.6501C132.921 34.3048 133.626 33.9733 134.316 33.6281C179.472 11.8731 231.152 7.88141 279.112 22.444C327.072 37.0067 367.811 69.0607 393.255 112.253C394.47 114.297 395.644 116.382 396.776 118.481C412.581 147.629 420.841 180.271 420.802 213.43Z" fill="#F50057" fill-opacity="0.94"/>
<g id="Subject">
<path id="Vector_2" d="M273.789 753.632C306.631 753.632 333.256 727.002 333.256 694.153C333.256 661.303 306.631 634.674 273.789 634.674C240.946 634.674 214.322 661.303 214.322 694.153C214.322 727.002 240.946 753.632 273.789 753.632Z" fill="#2F2E41"/>
<path id="Vector_3" d="M344.073 735.039H290.797V753.108H344.073V735.039Z" fill="#2F2E41"/>
<path id="Vector_4" d="M344.449 753.108C347.567 753.108 350.095 746.367 350.095 738.05C350.095 729.734 347.567 722.992 344.449 722.992C341.331 722.992 338.804 729.734 338.804 738.05C338.804 746.367 341.331 753.108 344.449 753.108Z" fill="#2F2E41"/>
<path id="Vector_5" d="M331.646 733.658H278.37V751.727H331.646V733.658Z" fill="#2F2E41"/>
<path id="Vector_6" d="M332.022 751.727C335.14 751.727 337.668 744.986 337.668 736.669C337.668 728.353 335.14 721.611 332.022 721.611C328.904 721.611 326.377 728.353 326.377 736.669C326.377 744.986 328.904 751.727 332.022 751.727Z" fill="#2F2E41"/>
<path id="Vector_7" d="M216.104 638.839C211.302 617.331 226.651 595.597 250.387 590.296C274.123 584.995 297.257 598.134 302.058 619.642C306.86 641.151 291.13 649.084 267.394 654.385C243.658 659.686 220.906 660.348 216.104 638.839Z" fill="#F50057"/>
<path id="Vector_8" d="M296.644 690.766C293.534 690.829 290.483 689.913 287.921 688.148C285.359 686.383 283.417 683.858 282.367 680.928C282.31 680.757 282.286 680.575 282.299 680.394C282.311 680.213 282.359 680.036 282.44 679.874C282.521 679.712 282.633 679.567 282.769 679.447C282.906 679.328 283.065 679.237 283.237 679.18C283.409 679.122 283.59 679.099 283.771 679.111C283.952 679.123 284.129 679.171 284.291 679.252C284.453 679.333 284.598 679.445 284.717 679.582C284.837 679.718 284.928 679.877 284.985 680.049C287.076 686.275 294.234 689.53 300.94 687.304C304.269 686.22 307.035 683.863 308.634 680.748C309.32 679.406 309.733 677.941 309.848 676.439C309.963 674.936 309.778 673.425 309.304 671.995C309.247 671.823 309.223 671.641 309.236 671.46C309.248 671.279 309.296 671.103 309.377 670.94C309.458 670.778 309.57 670.633 309.706 670.514C309.843 670.395 310.002 670.303 310.174 670.246C310.346 670.188 310.527 670.165 310.708 670.177C310.889 670.19 311.066 670.238 311.228 670.318C311.391 670.399 311.535 670.511 311.655 670.648C311.774 670.785 311.865 670.943 311.922 671.115C312.513 672.89 312.745 674.765 312.605 676.631C312.464 678.496 311.954 680.315 311.105 681.982C309.175 685.753 305.834 688.609 301.809 689.926C300.143 690.481 298.4 690.764 296.644 690.766V690.766Z" fill="white"/>
<path id="Vector_9" d="M323.134 698.85C324.73 701.972 325.021 705.6 323.943 708.936C322.864 712.272 320.505 715.043 317.384 716.64C314.263 718.236 310.636 718.527 307.3 717.449C303.965 716.371 301.194 714.011 299.598 710.889L299.586 710.866C296.269 704.362 300.853 700.325 307.355 697.007C313.858 693.689 319.816 692.346 323.134 698.85Z" fill="white"/>
<path id="Vector_10" d="M260.485 772.894C266.023 771.465 266.825 756.002 262.275 738.355C257.725 720.709 249.546 707.562 244.008 708.99C238.469 710.419 237.668 725.882 242.218 743.529C246.768 761.175 254.946 774.322 260.485 772.894Z" fill="#2F2E41"/>
</g>
<path id="Vector_11" d="M535.376 754.168H9.29631C8.93011 754.168 8.57888 754.022 8.31993 753.763C8.06098 753.504 7.91553 753.153 7.91553 752.787C7.91553 752.42 8.06098 752.069 8.31993 751.81C8.57888 751.551 8.93011 751.406 9.29631 751.406H535.376C535.742 751.406 536.093 751.551 536.352 751.81C536.611 752.069 536.756 752.42 536.756 752.787C536.756 753.153 536.611 753.504 536.352 753.763C536.093 754.022 535.742 754.168 535.376 754.168Z" fill="#3F3D56"/>
<g id="Sleeping">
<path id="Vector_12" d="M365.338 615.248H342.713C342.497 615.248 342.287 615.183 342.109 615.061C341.931 614.939 341.795 614.766 341.717 614.565C341.64 614.364 341.625 614.144 341.675 613.934C341.725 613.725 341.837 613.535 341.997 613.39L362.571 594.753H343.561C343.278 594.753 343.007 594.641 342.807 594.44C342.607 594.24 342.494 593.969 342.494 593.686C342.494 593.403 342.607 593.131 342.807 592.931C343.007 592.731 343.278 592.619 343.561 592.619H365.338C365.554 592.619 365.764 592.684 365.942 592.806C366.119 592.928 366.256 593.101 366.334 593.302C366.411 593.503 366.426 593.723 366.376 593.933C366.326 594.142 366.214 594.332 366.054 594.477L345.48 613.114H365.338C365.621 613.114 365.892 613.226 366.093 613.427C366.293 613.627 366.405 613.898 366.405 614.181C366.405 614.464 366.293 614.736 366.093 614.936C365.892 615.136 365.621 615.248 365.338 615.248V615.248Z" fill="#505050"/>
<path id="Vector_13" d="M394.147 582.165H371.522C371.306 582.165 371.096 582.1 370.918 581.978C370.74 581.856 370.604 581.683 370.526 581.482C370.448 581.28 370.434 581.061 370.483 580.851C370.533 580.641 370.646 580.451 370.805 580.307L391.379 561.67H372.37C372.087 561.67 371.816 561.557 371.616 561.357C371.416 561.157 371.303 560.885 371.303 560.602C371.303 560.319 371.416 560.048 371.616 559.848C371.816 559.648 372.087 559.535 372.37 559.535H394.147C394.362 559.535 394.573 559.6 394.75 559.722C394.928 559.844 395.065 560.017 395.142 560.218C395.22 560.42 395.235 560.639 395.185 560.849C395.135 561.059 395.023 561.249 394.863 561.393L374.289 580.03H394.147C394.43 580.03 394.701 580.143 394.901 580.343C395.101 580.543 395.214 580.815 395.214 581.098C395.214 581.381 395.101 581.652 394.901 581.852C394.701 582.052 394.43 582.165 394.147 582.165V582.165Z" fill="#505050"/>
<path id="Vector_14" d="M381.343 545.88H358.718C358.502 545.88 358.292 545.814 358.114 545.692C357.936 545.571 357.8 545.398 357.722 545.196C357.645 544.995 357.63 544.775 357.68 544.566C357.729 544.356 357.842 544.166 358.001 544.021L378.575 525.384H359.566C359.283 525.384 359.012 525.272 358.812 525.072C358.612 524.872 358.499 524.6 358.499 524.317C358.499 524.034 358.612 523.763 358.812 523.562C359.012 523.362 359.283 523.25 359.566 523.25H381.343C381.558 523.25 381.769 523.315 381.947 523.437C382.124 523.559 382.261 523.732 382.339 523.933C382.416 524.134 382.431 524.354 382.381 524.564C382.331 524.774 382.219 524.963 382.059 525.108L361.485 543.745H381.343C381.626 543.745 381.897 543.858 382.097 544.058C382.298 544.258 382.41 544.529 382.41 544.812C382.41 545.096 382.298 545.367 382.097 545.567C381.897 545.767 381.626 545.88 381.343 545.88V545.88Z" fill="#505050"/>
</g>
<g id="Birds">
<path id="Vector_15" d="M533.148 244.97L550.815 230.837C537.09 229.323 531.451 236.809 529.143 242.735C518.421 238.282 506.748 244.118 506.748 244.118L542.097 256.953C540.313 252.189 537.209 248.033 533.148 244.97V244.97Z" fill="#2C2A49"/>
<path id="Vector_16" d="M26.3995 14.3311L44.0665 0.197927C30.3418 -1.31659 24.7026 6.17008 22.3947 12.0959C11.6724 7.64265 -3.05176e-05 13.4788 -3.05176e-05 13.4788L35.3482 26.3142C33.565 21.5501 30.4608 17.3933 26.3995 14.3311V14.3311Z" fill="#2C2A49"/>
<path id="Vector_17" d="M577.333 62.6687L595 48.5355C581.275 47.021 575.636 54.5077 573.328 60.4334C562.606 55.9802 550.934 61.8164 550.934 61.8164L586.282 74.6518C584.499 69.8877 581.394 65.7309 577.333 62.6687Z" fill="#2C2A49"/>
</g>
</g>
<defs>
<clipPath id="clip0_1_248">
<rect width="595" height="773" fill="white"/>
</clipPath>
</defs>
</svg>
